<?xml version="1.0" encoding="utf-8"?>
<!-- Generator: Adobe Illustrator 21.1.0, SVG Export Plug-In . SVG Version: 6.00 Build 0)  -->
<svg version="1.1" id="Layer_1" xmlns="http://www.w3.org/2000/svg" xmlns:xlink="http://www.w3.org/1999/xlink" x="0px" y="0px"
viewBox="150 280 490 90" style="enable-background:new 0 0 792 612;" xml:space="preserve">
<style type="text/css">
	.st0{fill:#ed1c24;}
	.st1{fill:#232323;}
	.st2{fill:#fefefe;}
</style>
<g>
	<path class="st0" d="M162,287.9h8.8v20.3h9.7v-20.3h8.8v48.6h-8.8v-22h-9.7v22H162V287.9z"/>
	<path class="st0" d="M197.4,287.9h20.2v6.2h-11.3v14h8.9v6.2h-8.9v16.1h11.5v6.1h-20.3V287.9z"/>
	<path d="M222.1,330.2h1.7c1.5-0.8,2.7-2.1,3.8-3.8c1-1.7,1.9-4.4,2.7-8.1c0.8-3.6,1.3-8.5,1.7-14.7l1.1-15.7h21.5v42.3h5.1v16h-6.2
		l-0.5-9.7H229l-0.6,9.7h-6.3V330.2z M246.1,330.2v-35.9H240l-0.5,10.7c-0.3,6-0.8,10.7-1.5,14c-0.7,3.3-1.5,5.7-2.4,7.1
		c-0.9,1.4-2.1,2.8-3.5,4.1H246.1z"/>
	<path d="M267.7,333.1c-2.2-2.7-3.2-6.7-3.2-11.9V303c0-5.2,1.1-9.1,3.2-11.7c2.2-2.6,5.7-4,10.7-4c5,0,8.6,1.3,10.8,4
		c2.2,2.6,3.3,6.5,3.3,11.7v18.2c0,5.2-1.1,9.1-3.3,11.8c-2.2,2.7-5.8,4.1-10.8,4.1C273.4,337.1,269.8,335.8,267.7,333.1z
		 M282.4,328.7c0.7-1.3,1-3,1-5.4v-22.4c0-2.3-0.3-4.1-1-5.3c-0.7-1.2-2-1.8-4-1.8c-2,0-3.3,0.6-4,1.8c-0.7,1.2-1,3-1,5.3v22.4
		c0,2.4,0.3,4.2,1,5.4c0.7,1.2,2,1.9,4,1.9C280.4,330.6,281.7,329.9,282.4,328.7z"/>
	<path d="M304.5,294.4h-8v-6.5h24.7v6.5h-7.8v42.1h-8.9V294.4z"/>
	<path d="M328.4,333.1c-2.2-2.7-3.2-6.7-3.2-11.9V303c0-5.2,1.1-9.1,3.2-11.7c2.2-2.6,5.7-4,10.7-4c5,0,8.6,1.3,10.8,4
		c2.2,2.6,3.3,6.5,3.3,11.7v18.2c0,5.2-1.1,9.1-3.3,11.8c-2.2,2.7-5.8,4.1-10.8,4.1C334.1,337.1,330.5,335.8,328.4,333.1z
		 M343.1,328.7c0.7-1.3,1-3,1-5.4v-22.4c0-2.3-0.3-4.1-1-5.3c-0.7-1.2-2-1.8-4-1.8c-2,0-3.3,0.6-4,1.8c-0.7,1.2-1,3-1,5.3v22.4
		c0,2.4,0.3,4.2,1,5.4c0.7,1.2,2,1.9,4,1.9C341.1,330.6,342.5,329.9,343.1,328.7z"/>
	<path d="M360.4,287.9h14.3c8.3,0,12.4,4.6,12.4,13.8c0,8.8-4.3,13.2-13,13.2h-4.9v21.6h-8.8V287.9z M372.6,308.6
		c2.4,0,4-0.5,4.9-1.5c0.8-1,1.3-2.9,1.3-5.5c0-1.9-0.1-3.4-0.4-4.4c-0.3-1-0.9-1.8-1.7-2.3c-0.9-0.5-2.2-0.8-4-0.8h-3.4v14.5H372.6
		z"/>
	<path d="M392.7,287.9h8.8v20.4h1.8l7.9-20.4h8.8l-9.2,23l10,25.6h-8.9l-8.5-22.4h-1.8v22.4h-8.8V287.9z"/>
	<path d="M432.8,287.9h9.4l9.7,48.6h-8.2l-1.9-11.2h-8.5l-2,11.2H423L432.8,287.9z M440.8,319.6l-3.3-20.4l-3.3,20.4H440.8z"/>
	<path d="M457.3,287.9h8.8v20.3h9.7v-20.3h8.8v48.6h-8.8v-22h-9.7v22h-8.8V287.9z"/>
	<path d="M492.7,287.9h8.8v20.3h9.7v-20.3h8.8v48.6h-8.8v-22h-9.7v22h-8.8V287.9z"/>
	<path d="M528.2,287.9h8.8v48.6h-8.8V287.9z"/>
	<path d="M547,332.9c-2.1-2.8-3.1-6.8-3.1-12v-17.3c0-5.3,1-9.4,3.1-12.1c2.1-2.8,5.6-4.1,10.7-4.1c4.8,0,8.2,1.2,10.2,3.6
		s3,5.9,3,10.4v4.1h-8.6v-4.2c0-1.7-0.1-3.1-0.2-4.1c-0.2-1-0.6-1.8-1.2-2.4c-0.7-0.6-1.7-0.9-3.1-0.9c-1.4,0-2.5,0.3-3.2,1
		s-1.2,1.5-1.4,2.6c-0.2,1.1-0.3,2.5-0.3,4.3v21.1c0,2.8,0.3,4.8,1,6c0.7,1.2,2,1.8,3.9,1.8c1.4,0,2.4-0.3,3-1
		c0.7-0.6,1.1-1.5,1.3-2.5c0.2-1.1,0.3-2.5,0.3-4.2v-4.4h8.6v3.9c0,4.7-1,8.3-3,10.9c-2,2.6-5.4,3.9-10.2,3.9
		C552.6,337.1,549.1,335.7,547,332.9z"/>
	<path d="M582.6,294.4h-8v-6.5h24.7v6.5h-7.8v42.1h-8.9V294.4z"/>
	<path d="M604.1,287.9h8.8v20.4h2.2c5,0,8.8,1.1,11.2,3.2s3.7,5.8,3.7,10.9c0,5.2-1.3,8.9-3.8,11c-2.6,2.1-6.4,3.1-11.5,3.1h-10.6
		V287.9z M614.7,330.5c2.6,0,4.4-0.6,5.5-1.7c1.1-1.2,1.6-3.3,1.6-6.3c0-2.7-0.5-4.7-1.6-6c-1-1.3-2.9-2-5.6-2h-1.7v16H614.7z"/>
	<g>
		<rect x="219.9" y="278.7" width="0.5" height="1"/>
		<path d="M220.4,352h-0.5v-2h0.5V352z M220.4,348h-0.5v-2h0.5V348z M220.4,343.9h-0.5v-2h0.5V343.9z M220.4,339.9h-0.5v-2h0.5
			V339.9z M220.4,335.9h-0.5v-2h0.5V335.9z M220.4,331.9h-0.5v-2h0.5V331.9z M220.4,327.9h-0.5v-2h0.5V327.9z M220.4,323.9h-0.5v-2
			h0.5V323.9z M220.4,319.9h-0.5v-2h0.5V319.9z M220.4,315.9h-0.5v-2h0.5V315.9z M220.4,311.8h-0.5v-2h0.5V311.8z M220.4,307.8h-0.5
			v-2h0.5V307.8z M220.4,303.8h-0.5v-2h0.5V303.8z M220.4,299.8h-0.5v-2h0.5V299.8z M220.4,295.8h-0.5v-2h0.5V295.8z M220.4,291.8
			h-0.5v-2h0.5V291.8z M220.4,287.8h-0.5v-2h0.5V287.8z M220.4,283.8h-0.5v-2h0.5V283.8z"/>
		<rect x="219.9" y="354" width="0.5" height="1"/>
	</g>
	<g>
		<path class="st1" d="M212.7,345.7l6.9,9.7l-1.9,1.9c-1.1-1.9-2.7-4.8-4.6-8.1C212.4,348,212.3,346.8,212.7,345.7L212.7,345.7z"/>
		<path class="st1" d="M228.1,347.9l-12.3,12.3c-0.6-0.6-1.3-0.8-2.1-0.8c-1,0-2.1,0.4-2.9,1.3c-1.5,1.5-1.7,3.8-0.4,5
			c0.6,0.6,1.3,0.8,2.1,0.8c1,0,2.1-0.4,2.9-1.3c0.4-0.4,0.7-0.8,0.9-1.2v0c0,0,0-0.1,0.1-0.1c0.2-0.5,0.4-0.9,0.6-1.3
			c0,0,8.9-9.5,10.1-11c0.6-0.8,1-1.7,1.1-2.7L228.1,347.9z M214.1,364c-0.5,0.5-1.1,0.8-1.7,0.8c-0.3,0-0.6-0.1-0.9-0.3
			c-0.6-0.6-0.4-1.7,0.4-2.6c0.5-0.5,1.1-0.8,1.7-0.8c0.3,0,0.6,0.1,0.9,0.3C215.1,362,214.9,363.2,214.1,364z"/>
		<path class="st1" d="M220.1,360.1c0.5,0.8,1.4,1.6,1.8,3.2c0,0,0,0.1,0,0.1c0,0,0,0,0,0l0,0c0.1,0.5,0.4,0.9,0.7,1.3
			c0.7,1,1.7,1.6,2.7,1.7c0.8,0.1,1.6,0,2.2-0.5c1.5-1,1.6-3.3,0.4-5c-0.7-1-1.7-1.6-2.7-1.7c-0.8-0.1-1.6,0-2.2,0.5l-1.1-1.4
			L220.1,360.1z M223.9,361.1c0.3-0.2,0.7-0.2,0.9-0.2c0.6,0.1,1.1,0.5,1.5,1c0.7,0.9,0.7,2.1,0,2.6c-0.3,0.2-0.7,0.2-0.9,0.2
			c-0.6-0.1-1.1-0.5-1.5-1C223.3,362.8,223.3,361.6,223.9,361.1z"/>
	</g>
	<circle class="st2" cx="220.5" cy="274.4" r="0.4"/>
</g>
</svg>
